<svg width="94" height="94" viewBox="0 0 94 94" fill="none" xmlns="http://www.w3.org/2000/svg">
<path d="M3.125 0C2.2962 0 1.50134 0.32924 0.915291 0.915291C0.32924 1.50134 0 2.2962 0 3.125C0 3.9538 0.32924 4.74866 0.915291 5.33471C1.50134 5.92076 2.2962 6.25 3.125 6.25H10.0625L12.5687 16.2938L21.9313 66.2C22.0653 66.9161 22.4453 67.5629 23.0057 68.0285C23.566 68.4941 24.2715 68.7493 25 68.75H31.25C27.9348 68.75 24.7554 70.067 22.4112 72.4112C20.067 74.7554 18.75 77.9348 18.75 81.25C18.75 84.5652 20.067 87.7446 22.4112 90.0888C24.7554 92.433 27.9348 93.75 31.25 93.75C34.5652 93.75 37.7446 92.433 40.0888 90.0888C42.433 87.7446 43.75 84.5652 43.75 81.25C43.75 77.9348 42.433 74.7554 40.0888 72.4112C37.7446 70.067 34.5652 68.75 31.25 68.75H75C71.6848 68.75 68.5054 70.067 66.1612 72.4112C63.817 74.7554 62.5 77.9348 62.5 81.25C62.5 84.5652 63.817 87.7446 66.1612 90.0888C68.5054 92.433 71.6848 93.75 75 93.75C78.3152 93.75 81.4946 92.433 83.8388 90.0888C86.183 87.7446 87.5 84.5652 87.5 81.25C87.5 77.9348 86.183 74.7554 83.8388 72.4112C81.4946 70.067 78.3152 68.75 75 68.75H81.25C81.9785 68.7493 82.684 68.4941 83.2443 68.0285C83.8047 67.5629 84.1847 66.9161 84.3188 66.2L93.6938 16.2C93.7782 15.749 93.7622 15.2849 93.6471 14.8407C93.5319 14.3966 93.3204 13.9832 93.0275 13.63C92.7345 13.2768 92.3674 12.9925 91.9522 12.7972C91.537 12.6019 91.0839 12.5004 90.625 12.5H18.0625L15.5312 2.36875C15.3626 1.6924 14.9726 1.09187 14.4233 0.662655C13.8741 0.233442 13.1971 0.000192572 12.5 0H3.125ZM37.5 81.25C37.5 82.9076 36.8415 84.4973 35.6694 85.6694C34.4973 86.8415 32.9076 87.5 31.25 87.5C29.5924 87.5 28.0027 86.8415 26.8306 85.6694C25.6585 84.4973 25 82.9076 25 81.25C25 79.5924 25.6585 78.0027 26.8306 76.8306C28.0027 75.6585 29.5924 75 31.25 75C32.9076 75 34.4973 75.6585 35.6694 76.8306C36.8415 78.0027 37.5 79.5924 37.5 81.25ZM81.25 81.25C81.25 82.9076 80.5915 84.4973 79.4194 85.6694C78.2473 86.8415 76.6576 87.5 75 87.5C73.3424 87.5 71.7527 86.8415 70.5806 85.6694C69.4085 84.4973 68.75 82.9076 68.75 81.25C68.75 79.5924 69.4085 78.0027 70.5806 76.8306C71.7527 75.6585 73.3424 75 75 75C76.6576 75 78.2473 75.6585 79.4194 76.8306C80.5915 78.0027 81.25 79.5924 81.25 81.25ZM56.25 28.125V37.5H65.625C66.4538 37.5 67.2487 37.8292 67.8347 38.4153C68.4208 39.0013 68.75 39.7962 68.75 40.625C68.75 41.4538 68.4208 42.2487 67.8347 42.8347C67.2487 43.4208 66.4538 43.75 65.625 43.75H56.25V53.125C56.25 53.9538 55.9208 54.7487 55.3347 55.3347C54.7487 55.9208 53.9538 56.25 53.125 56.25C52.2962 56.25 51.5013 55.9208 50.9153 55.3347C50.3292 54.7487 50 53.9538 50 53.125V43.75H40.625C39.7962 43.75 39.0013 43.4208 38.4153 42.8347C37.8292 42.2487 37.5 41.4538 37.5 40.625C37.5 39.7962 37.8292 39.0013 38.4153 38.4153C39.0013 37.8292 39.7962 37.5 40.625 37.5H50V28.125C50 27.2962 50.3292 26.5013 50.9153 25.9153C51.5013 25.3292 52.2962 25 53.125 25C53.9538 25 54.7487 25.3292 55.3347 25.9153C55.9208 26.5013 56.25 27.2962 56.25 28.125Z" fill="black"/>
</svg>
