<svg width="100" height="100" viewBox="0 0 100 100" fill="none" xmlns="http://www.w3.org/2000/svg">
<g clip-path="url(#clip0_31_2)">
<path d="M3.125 0C3.9538 0 4.74866 0.32924 5.33471 0.915291C5.92076 1.50134 6.25 2.2962 6.25 3.125V96.875C6.25 97.7038 5.92076 98.4987 5.33471 99.0847C4.74866 99.6708 3.9538 100 3.125 100C2.2962 100 1.50134 99.6708 0.915291 99.0847C0.32924 98.4987 0 97.7038 0 96.875V3.125C0 2.2962 0.32924 1.50134 0.915291 0.915291C1.50134 0.32924 2.2962 0 3.125 0ZM12.5 9.375C12.5 8.5462 12.8292 7.75134 13.4153 7.16529C14.0013 6.57924 14.7962 6.25 15.625 6.25H40.625C41.4538 6.25 42.2487 6.57924 42.8347 7.16529C43.4208 7.75134 43.75 8.5462 43.75 9.375V15.625C43.75 16.4538 43.4208 17.2487 42.8347 17.8347C42.2487 18.4208 41.4538 18.75 40.625 18.75H15.625C14.7962 18.75 14.0013 18.4208 13.4153 17.8347C12.8292 17.2487 12.5 16.4538 12.5 15.625V9.375ZM25 34.375C25 33.5462 25.3292 32.7513 25.9153 32.1653C26.5013 31.5792 27.2962 31.25 28.125 31.25H71.875C72.7038 31.25 73.4987 31.5792 74.0847 32.1653C74.6708 32.7513 75 33.5462 75 34.375V40.625C75 41.4538 74.6708 42.2487 74.0847 42.8347C73.4987 43.4208 72.7038 43.75 71.875 43.75H28.125C27.2962 43.75 26.5013 43.4208 25.9153 42.8347C25.3292 42.2487 25 41.4538 25 40.625V34.375ZM37.5 59.375C37.5 58.5462 37.8292 57.7513 38.4153 57.1653C39.0013 56.5792 39.7962 56.25 40.625 56.25H78.125C78.9538 56.25 79.7487 56.5792 80.3347 57.1653C80.9208 57.7513 81.25 58.5462 81.25 59.375V65.625C81.25 66.4538 80.9208 67.2487 80.3347 67.8347C79.7487 68.4208 78.9538 68.75 78.125 68.75H40.625C39.7962 68.75 39.0013 68.4208 38.4153 67.8347C37.8292 67.2487 37.5 66.4538 37.5 65.625V59.375ZM50 84.375C50 83.5462 50.3292 82.7513 50.9153 82.1653C51.5013 81.5792 52.2962 81.25 53.125 81.25H96.875C97.7038 81.25 98.4987 81.5792 99.0847 82.1653C99.6708 82.7513 100 83.5462 100 84.375V90.625C100 91.4538 99.6708 92.2487 99.0847 92.8347C98.4987 93.4208 97.7038 93.75 96.875 93.75H53.125C52.2962 93.75 51.5013 93.4208 50.9153 92.8347C50.3292 92.2487 50 91.4538 50 90.625V84.375Z" fill="black"/>
</g>
<defs>
<clipPath id="clip0_31_2">
<rect width="100" height="100" fill="white"/>
</clipPath>
</defs>
</svg>
