<svg width="108" height="108" viewBox="0 0 108 108" fill="none" xmlns="http://www.w3.org/2000/svg">
<g clip-path="url(#clip0_28_4)" filter="url(#filter0_d_28_4)">
<path d="M25.875 0C26.7038 0 27.4987 0.32924 28.0847 0.915291C28.6708 1.50134 29 2.2962 29 3.125V6.25H79V3.125C79 2.2962 79.3292 1.50134 79.9153 0.915291C80.5013 0.32924 81.2962 0 82.125 0C82.9538 0 83.7487 0.32924 84.3347 0.915291C84.9208 1.50134 85.25 2.2962 85.25 3.125V6.25H91.5C94.8152 6.25 97.9946 7.56696 100.339 9.91117C102.683 12.2554 104 15.4348 104 18.75V87.5C104 90.8152 102.683 93.9946 100.339 96.3388C97.9946 98.683 94.8152 100 91.5 100H16.5C13.1848 100 10.0054 98.683 7.66117 96.3388C5.31696 93.9946 4 90.8152 4 87.5V18.75C4 15.4348 5.31696 12.2554 7.66117 9.91117C10.0054 7.56696 13.1848 6.25 16.5 6.25H22.75V3.125C22.75 2.2962 23.0792 1.50134 23.6653 0.915291C24.2513 0.32924 25.0462 0 25.875 0ZM88.0875 18.75H19.9063C18.0313 18.75 16.5 20.15 16.5 21.875V28.125C16.5 29.85 18.025 31.25 19.9063 31.25H88.0937C89.9687 31.25 91.5 29.85 91.5 28.125V21.875C91.5 20.15 89.975 18.75 88.0875 18.75ZM66.5 43.75C64.8424 43.75 63.2527 44.4085 62.0806 45.5806C60.9085 46.7527 60.25 48.3424 60.25 50C60.25 51.6576 60.9085 53.2473 62.0806 54.4194C63.2527 55.5915 64.8424 56.25 66.5 56.25H97.75V43.75H66.5ZM41.5 68.75C41.5 67.0924 40.8415 65.5027 39.6694 64.3306C38.4973 63.1585 36.9076 62.5 35.25 62.5H10.25V75H35.25C36.9076 75 38.4973 74.3415 39.6694 73.1694C40.8415 71.9973 41.5 70.4076 41.5 68.75Z" fill="black"/>
</g>
<defs>
<filter id="filter0_d_28_4" x="0" y="0" width="108" height="108" filterUnits="userSpaceOnUse" color-interpolation-filters="sRGB">
<feFlood flood-opacity="0" result="BackgroundImageFix"/>
<feColorMatrix in="SourceAlpha" type="matrix" values="0 0 0 0 0 0 0 0 0 0 0 0 0 0 0 0 0 0 127 0" result="hardAlpha"/>
<feOffset dy="4"/>
<feGaussianBlur stdDeviation="2"/>
<feComposite in2="hardAlpha" operator="out"/>
<feColorMatrix type="matrix" values="0 0 0 0 0 0 0 0 0 0 0 0 0 0 0 0 0 0 0.25 0"/>
<feBlend mode="normal" in2="BackgroundImageFix" result="effect1_dropShadow_28_4"/>
<feBlend mode="normal" in="SourceGraphic" in2="effect1_dropShadow_28_4" result="shape"/>
</filter>
<clipPath id="clip0_28_4">
<rect width="100" height="100" fill="white" transform="translate(4)"/>
</clipPath>
</defs>
</svg>
