<svg width="90" height="100" viewBox="0 0 90 100" fill="none" xmlns="http://www.w3.org/2000/svg">
<path d="M45 0C46.6576 0 48.2473 0.65848 49.4194 1.83058C50.5915 3.00269 51.25 4.5924 51.25 6.25V39.175L79.7625 22.7125C80.4736 22.2956 81.2601 22.0235 82.0767 21.9119C82.8934 21.8002 83.724 21.8512 84.5209 22.0619C85.3178 22.2726 86.0651 22.6388 86.7199 23.1395C87.3746 23.6401 87.9239 24.2654 88.336 24.9792C88.7482 25.693 89.015 26.4813 89.1213 27.2987C89.2275 28.1161 89.171 28.9464 88.9551 29.7418C88.7391 30.5373 88.3679 31.2822 87.8629 31.9336C87.3579 32.585 86.729 33.1301 86.0125 33.5375L57.5 50L86.0125 66.4625C86.729 66.8699 87.3579 67.415 87.8629 68.0664C88.3679 68.7178 88.7391 69.4627 88.9551 70.2582C89.171 71.0536 89.2275 71.8839 89.1213 72.7013C89.015 73.5187 88.7482 74.307 88.336 75.0208C87.9239 75.7346 87.3746 76.3599 86.7199 76.8605C86.0651 77.3612 85.3178 77.7274 84.5209 77.9381C83.724 78.1488 82.8934 78.1998 82.0767 78.0881C81.2601 77.9765 80.4736 77.7044 79.7625 77.2875L51.25 60.825V93.75C51.25 95.4076 50.5915 96.9973 49.4194 98.1694C48.2473 99.3415 46.6576 100 45 100C43.3424 100 41.7527 99.3415 40.5806 98.1694C39.4085 96.9973 38.75 95.4076 38.75 93.75V60.825L10.2375 77.2875C9.52644 77.7044 8.73994 77.9765 7.92328 78.0881C7.10663 78.1998 6.27596 78.1488 5.47909 77.9381C4.68222 77.7274 3.93489 77.3612 3.28013 76.8605C2.62537 76.3599 2.07611 75.7346 1.66398 75.0208C1.25185 74.307 0.984976 73.5187 0.878735 72.7013C0.772494 71.8839 0.828979 71.0536 1.04494 70.2582C1.2609 69.4627 1.63207 68.7178 2.13708 68.0664C2.64209 67.415 3.27097 66.8699 3.9875 66.4625L32.5 50L3.9875 33.5375C2.56371 32.7028 1.52787 31.3388 1.10602 29.7432C0.684167 28.1476 0.910558 26.45 1.73579 25.0207C2.56102 23.5914 3.91809 22.5465 5.51085 22.1141C7.10361 21.6816 8.80276 21.8968 10.2375 22.7125L38.75 39.175V6.25C38.75 4.5924 39.4085 3.00269 40.5806 1.83058C41.7527 0.65848 43.3424 0 45 0Z" fill="black"/>
</svg>
